<?xml version="1.0" standalone="no"?>
<!DOCTYPE svg PUBLIC "-//W3C//DTD SVG 20010904//EN"
 "http://www.w3.org/TR/2001/REC-SVG-20010904/DTD/svg10.dtd">
<svg version="1.0" xmlns="http://www.w3.org/2000/svg"
 width="1504.000000pt" height="1504.000000pt" viewBox="0 0 1504.000000 1504.000000"
 preserveAspectRatio="xMidYMid meet">
<metadata>
Created by potrace 1.14, written by Peter Selinger 2001-2017
</metadata>
<g transform="translate(0.000000,1504.000000) scale(0.100000,-0.100000)"
fill="#000000" stroke="none">
<path d="M5039 10875 c-3 -2 -36 -7 -74 -11 -93 -9 -120 -12 -120 -14 0 -1
-11 -3 -25 -5 -48 -6 -204 -37 -245 -49 -5 -2 -28 -7 -50 -11 -50 -11 -47 -10
-65 -18 -8 -3 -44 -13 -80 -22 -70 -18 -188 -56 -315 -103 -123 -46 -138 -52
-160 -62 -11 -5 -49 -21 -85 -36 -121 -49 -485 -225 -602 -291 -32 -17 -58
-30 -58 -28 0 3 -23 -9 -50 -25 -28 -17 -54 -30 -57 -30 -4 0 -47 -20 -97 -44
-103 -50 -147 -70 -261 -117 -44 -18 -82 -36 -85 -39 -3 -3 -13 -6 -23 -8 -10
-2 -39 -12 -65 -24 -161 -70 -440 -156 -587 -182 -16 -3 -41 -8 -55 -11 -113
-23 -405 -23 -520 0 -14 3 -41 7 -61 10 -58 8 -207 53 -284 87 -183 80 -401
225 -588 391 -33 29 -62 52 -67 52 -4 0 -34 -32 -66 -70 -33 -39 -65 -77 -71
-85 -7 -8 -31 -37 -54 -65 -23 -27 -51 -61 -63 -75 -62 -73 -106 -128 -106
-133 0 -3 46 -42 102 -87 156 -123 165 -130 298 -217 52 -34 100 -67 107 -73
7 -5 14 -10 17 -10 3 0 28 -13 55 -29 28 -17 87 -49 133 -71 46 -23 91 -46
100 -51 46 -24 279 -93 353 -104 33 -5 96 -16 119 -21 109 -22 521 -22 658 1
13 2 39 6 58 9 30 4 119 22 219 42 14 3 28 7 33 10 5 3 20 7 34 10 35 6 233
74 266 90 15 8 30 14 33 14 8 -2 117 39 137 50 10 6 23 10 28 10 6 0 31 9 56
20 43 20 82 36 96 39 4 1 42 19 85 40 43 21 79 37 81 36 2 -2 -5 -20 -16 -42
-27 -53 -73 -172 -89 -228 -42 -158 -60 -373 -39 -497 23 -141 126 -286 275
-387 57 -39 100 -61 291 -148 124 -57 119 -68 -80 -163 -246 -117 -367 -229
-430 -397 -7 -18 -14 -74 -15 -124 -5 -150 26 -241 108 -322 62 -61 104 -87
208 -130 46 -18 93 -38 104 -42 11 -5 22 -9 25 -10 15 -5 68 -27 85 -35 11 -5
38 -16 60 -25 81 -32 94 -40 107 -63 11 -22 10 -27 -19 -51 -17 -14 -60 -46
-97 -71 -220 -149 -432 -346 -569 -528 -77 -104 -192 -282 -199 -310 -2 -7 24
-28 57 -46 82 -45 296 -160 372 -198 l62 -32 20 25 c11 13 20 28 21 32 0 10
129 182 164 220 14 15 26 30 26 32 0 5 150 155 155 155 2 0 15 10 28 23 35 33
76 67 142 117 33 25 62 48 63 53 2 4 8 5 13 1 5 -3 9 -1 9 3 0 5 23 22 50 38
28 16 50 33 50 37 0 4 5 8 11 8 33 0 270 217 303 277 57 103 74 171 70 268 -4
111 -17 142 -86 213 -33 34 -83 64 -215 128 -94 46 -174 84 -178 84 -3 0 -44
18 -91 40 -47 22 -88 40 -90 40 -2 0 -28 11 -59 25 -40 18 -55 31 -55 45 0 33
67 90 210 180 422 264 485 327 483 485 0 88 -2 98 -36 168 -29 57 -117 148
-167 170 -14 7 -27 14 -30 18 -10 12 -212 109 -226 109 -4 0 -47 18 -98 41
-85 38 -187 101 -194 121 -2 4 -9 14 -16 21 -55 56 -55 237 0 432 26 92 97
246 140 302 13 17 24 36 24 41 0 6 3 12 8 14 4 2 23 23 43 48 60 74 201 210
218 210 5 0 11 4 13 9 4 11 154 111 167 111 5 0 11 3 13 8 9 21 277 137 388
167 111 31 160 42 160 39 0 -3 8 0 18 5 9 5 37 12 62 14 25 3 56 8 70 11 14 3
54 8 90 11 36 3 85 8 110 10 66 7 365 8 435 1 126 -13 196 -22 225 -31 8 -2
26 -6 40 -9 163 -29 410 -120 659 -243 59 -28 109 -49 112 -45 4 4 61 114 127
244 85 168 116 240 108 247 -11 9 -242 121 -326 158 -25 11 -99 39 -165 63
-66 23 -129 46 -140 51 -11 5 -31 11 -45 13 -14 3 -50 12 -80 21 -30 10 -64
18 -75 20 -11 1 -33 5 -50 9 -80 18 -101 21 -275 44 -45 5 -576 12 -581 7z"/>
<path d="M12807 10424 c-1 -1 -40 -5 -87 -9 -47 -3 -101 -8 -120 -10 -19 -3
-59 -7 -88 -9 -29 -3 -60 -7 -70 -10 -9 -3 -31 -8 -47 -10 -46 -6 -177 -31
-210 -40 -5 -2 -28 -7 -50 -11 -22 -5 -42 -10 -45 -10 -31 -8 -80 -21 -155
-42 -49 -14 -97 -26 -105 -28 -8 -2 -30 -8 -48 -14 -18 -5 -36 -10 -40 -11 -4
0 -30 -8 -58 -16 -28 -8 -60 -16 -70 -19 -11 -2 -66 -18 -124 -35 -58 -18
-112 -34 -120 -36 -8 -2 -89 -26 -180 -55 -184 -57 -268 -81 -290 -83 -9 -1
-20 -5 -25 -8 -8 -4 -205 -57 -270 -73 -5 -1 -17 -5 -25 -8 -8 -4 -26 -8 -40
-11 -14 -2 -61 -13 -105 -24 -44 -11 -93 -23 -110 -25 -16 -3 -41 -8 -55 -11
-28 -6 -72 -15 -110 -21 -14 -2 -38 -6 -55 -9 -27 -4 -65 -9 -163 -21 -161
-20 -576 -27 -717 -13 -191 20 -345 52 -490 101 -151 51 -381 158 -485 226
-49 31 -65 41 -90 53 -14 7 -27 15 -30 18 -12 13 -91 60 -100 60 -5 0 -10 3
-10 8 0 4 -17 16 -37 27 -20 11 -41 25 -48 30 -10 10 -119 85 -141 98 -7 4
-40 -36 -85 -101 -40 -59 -76 -108 -81 -110 -4 -2 -8 -8 -8 -14 0 -11 -81
-131 -92 -136 -5 -2 -8 -8 -8 -13 0 -6 -10 -23 -22 -40 -22 -29 -22 -31 -5
-44 9 -7 27 -20 40 -29 12 -9 54 -39 92 -66 39 -27 75 -54 82 -60 7 -5 15 -10
18 -10 4 0 25 -13 48 -29 66 -45 185 -115 267 -157 41 -22 77 -41 80 -44 7 -8
220 -102 315 -140 44 -18 82 -34 84 -36 2 -2 -32 -39 -75 -82 -85 -83 -204
-229 -269 -327 -22 -33 -43 -61 -47 -63 -5 -2 -8 -8 -8 -13 0 -5 -11 -27 -24
-48 -103 -163 -212 -449 -242 -635 -3 -21 -8 -48 -10 -60 -19 -91 -25 -413
-11 -532 8 -71 40 -201 63 -259 34 -85 116 -243 157 -299 53 -74 186 -213 252
-262 79 -60 196 -134 211 -134 8 0 14 -4 14 -8 0 -9 199 -92 219 -92 6 0 19
-4 29 -10 23 -12 151 -43 232 -55 20 -3 47 -8 60 -10 87 -18 477 -24 655 -11
39 3 99 8 135 10 69 5 149 14 190 21 14 3 52 8 85 11 33 4 63 8 66 10 3 1 28
6 55 10 27 3 56 10 65 15 9 4 18 6 21 4 4 -4 167 28 199 39 8 3 25 8 39 10 14
3 54 12 90 21 36 9 73 18 83 20 10 2 27 7 37 10 10 3 28 8 39 10 42 10 57 13
121 30 36 9 72 18 81 20 26 5 223 57 239 63 8 3 23 7 32 8 9 2 65 17 124 34
125 35 144 36 145 13 1 -20 0 -19 30 -128 11 -44 22 -87 24 -95 2 -8 20 -76
39 -150 20 -74 39 -148 41 -164 3 -16 8 -33 11 -38 3 -5 8 -21 10 -36 3 -15 9
-40 14 -57 12 -39 36 -129 50 -182 12 -46 17 -48 70 -33 53 16 333 89 355 93
11 2 27 7 35 10 8 4 26 9 40 11 14 3 26 5 28 7 2 2 18 6 31 8 7 1 -1 45 -24
134 -3 9 -7 25 -9 35 -2 9 -19 71 -36 137 -18 66 -34 127 -36 135 -17 69 -49
190 -83 322 -23 86 -41 161 -41 166 0 5 21 14 48 20 26 7 56 15 67 18 11 3 29
7 40 9 11 2 20 4 20 5 0 1 7 3 15 5 8 1 51 10 95 19 44 9 100 19 125 22 25 3
56 7 70 10 137 23 493 23 710 -2 87 -9 286 -45 330 -59 10 -3 27 -7 37 -10 48
-9 229 -72 320 -111 122 -52 353 -172 373 -194 3 -3 22 -14 43 -25 20 -11 37
-23 37 -27 0 -5 5 -8 10 -8 6 0 35 -18 65 -40 30 -22 58 -40 64 -40 5 0 11 -3
13 -7 6 -15 87 -73 100 -73 7 0 23 15 35 33 13 18 31 42 41 53 9 10 36 44 59
74 24 30 46 60 51 65 4 6 26 34 47 63 22 28 43 52 47 52 4 0 8 5 8 11 0 6 11
24 25 41 14 16 25 33 25 36 0 4 -28 26 -63 49 -34 23 -88 60 -120 82 -31 23
-60 41 -63 41 -2 0 -10 5 -17 10 -16 14 -111 75 -117 76 -3 0 -23 12 -45 26
-22 14 -60 36 -85 49 -25 13 -47 26 -50 29 -7 8 -203 103 -295 143 -90 40
-247 98 -315 117 -25 7 -56 16 -70 21 -14 4 -59 15 -101 23 -42 9 -83 18 -90
20 -8 3 -34 7 -59 10 -25 3 -61 8 -80 11 -119 18 -273 28 -445 29 -129 0 -353
-10 -410 -18 -16 -3 -55 -7 -85 -11 -30 -3 -82 -10 -115 -16 -33 -5 -69 -12
-80 -14 -11 -1 -38 -6 -60 -11 -22 -4 -49 -9 -60 -10 -11 -1 -20 -3 -20 -4 0
0 -48 -13 -107 -29 l-107 -27 -11 24 c-6 14 -9 27 -6 29 2 3 -2 24 -10 46 -8
23 -20 62 -25 87 -16 67 -15 65 -50 195 -17 66 -32 126 -32 133 0 6 -3 12 -7
12 -3 0 -6 8 -7 18 -1 9 -3 24 -6 32 -2 8 -7 33 -12 55 -4 22 -11 47 -15 55
-5 8 -11 29 -14 45 -3 17 -10 48 -16 70 -7 22 -12 48 -13 58 -1 17 -27 24 -41
10 -3 -4 -15 -8 -26 -10 -10 -1 -63 -14 -117 -29 -54 -14 -106 -28 -115 -30
-29 -7 -49 -12 -133 -34 -44 -12 -88 -23 -98 -25 -33 -7 -34 -15 -10 -102 13
-48 25 -97 28 -108 6 -31 64 -250 65 -250 1 0 3 -7 5 -15 2 -8 6 -26 9 -40 3
-14 21 -83 40 -155 19 -71 33 -131 31 -134 -3 -2 -1 -9 4 -15 5 -6 12 -25 15
-43 7 -30 6 -31 -44 -48 -28 -9 -56 -18 -63 -19 -7 -1 -39 -10 -72 -20 -33
-10 -67 -20 -75 -22 -8 -1 -43 -12 -77 -23 -35 -10 -63 -17 -63 -15 0 3 -8 0
-18 -5 -11 -6 -30 -12 -43 -14 -13 -3 -49 -12 -80 -21 -31 -9 -67 -19 -80 -22
-13 -3 -40 -10 -59 -14 -62 -16 -344 -81 -370 -86 -14 -2 -59 -11 -100 -19
-404 -78 -933 -103 -1165 -56 -139 29 -298 92 -342 136 -8 8 -18 15 -22 15
-13 0 -119 112 -157 165 -37 52 -85 149 -99 200 -5 17 -9 33 -10 38 -2 4 -3 8
-5 10 -2 3 -7 28 -16 87 -9 58 -10 267 -1 345 15 140 20 169 47 260 11 39 23
79 26 90 12 45 16 55 50 133 13 29 24 57 24 62 0 6 4 10 10 10 5 0 9 3 8 8 -2
7 37 82 75 143 12 19 31 50 42 67 10 18 23 32 27 32 4 0 8 6 8 14 0 8 3 16 8
18 4 2 27 28 52 58 52 64 180 191 230 229 19 14 37 28 40 31 33 36 62 47 107
42 111 -13 604 -5 733 12 14 2 54 6 90 11 36 4 76 9 90 11 14 2 43 6 65 9 71
9 257 46 365 72 58 13 112 26 120 28 8 2 44 11 80 20 36 8 72 17 80 19 8 2 53
14 100 26 47 12 92 24 100 26 38 9 197 55 210 61 8 3 20 7 25 8 6 1 13 3 18 5
8 3 9 3 57 14 19 5 40 12 45 16 6 4 24 10 40 14 42 10 223 65 268 82 20 8 37
12 37 9 0 -2 29 7 65 20 36 13 65 22 65 20 0 -2 12 0 28 5 134 41 376 108 422
117 14 3 30 6 35 7 6 2 28 6 50 11 22 4 49 9 60 12 11 2 38 6 60 9 22 3 51 8
65 10 133 25 555 24 750 -1 19 -3 54 -7 77 -10 39 -5 109 -18 158 -30 11 -3
29 -7 40 -9 80 -16 215 -59 340 -108 99 -39 326 -148 355 -171 8 -7 24 -17 35
-23 50 -27 70 -40 89 -56 11 -10 23 -18 27 -18 5 0 29 -15 55 -32 25 -18 53
-37 63 -43 9 -5 18 -12 21 -15 20 -20 120 -89 120 -83 0 5 12 22 28 39 15 17
32 38 37 46 12 18 65 87 173 224 43 55 82 106 86 113 9 15 9 15 -159 128 -71
49 -131 91 -133 96 -2 4 -7 7 -12 7 -5 0 -45 22 -89 50 -44 27 -123 72 -176
100 -52 27 -103 54 -113 59 -18 10 -122 58 -182 84 -19 8 -64 27 -100 40 -93
36 -104 40 -117 44 -7 1 -19 5 -25 6 -7 2 -21 7 -30 10 -10 4 -26 10 -35 14
-10 3 -23 7 -29 8 -16 4 -154 36 -179 42 -11 2 -31 6 -45 8 -14 2 -36 6 -50 9
-14 3 -45 8 -70 11 -25 3 -56 7 -70 10 -69 13 -601 30 -613 19z m-822 -2961
c5 -21 10 -42 11 -48 26 -89 38 -138 49 -190 4 -22 12 -46 18 -52 5 -7 7 -13
4 -13 -3 0 5 -38 18 -86 18 -62 21 -86 12 -89 -7 -2 -64 -18 -127 -35 -63 -18
-144 -41 -180 -52 -36 -11 -75 -22 -87 -24 -12 -2 -49 -13 -82 -23 -34 -10
-59 -15 -56 -11 3 5 1 11 -5 15 -6 4 -8 10 -5 15 3 5 1 18 -4 29 -6 11 -14 37
-17 58 -3 21 -8 41 -11 45 -2 5 -6 16 -8 26 -1 9 -8 37 -15 62 -7 25 -14 52
-16 60 -2 8 -15 58 -28 110 -14 52 -24 95 -23 96 2 2 289 83 316 89 9 2 55 15
104 29 48 13 87 21 87 18 0 -3 5 -1 12 6 16 16 25 7 33 -35z"/>
<path d="M4773 5662 c-3 -7 -6 -133 -7 -280 l-1 -267 -272 0 c-150 -1 -275 -4
-278 -7 -8 -8 -10 -386 -2 -394 3 -3 129 -6 281 -6 l275 0 0 -247 c-1 -135 0
-258 0 -273 l1 -28 200 0 c183 0 200 1 201 18 1 9 2 132 3 272 l1 255 273 0
c174 0 272 4 273 10 1 6 2 96 3 202 1 164 -1 192 -14 195 -8 2 -131 3 -272 3
-177 -1 -258 2 -260 9 0 6 -2 126 -4 266 -1 140 -2 262 -3 270 -1 13 -30 15
-197 15 -151 0 -198 -3 -201 -13z"/>
<path d="M13145 5402 c0 -171 -4 -277 -10 -281 -5 -5 -129 -8 -273 -7 -145 1
-267 -1 -271 -4 -4 -3 -7 -94 -7 -202 l0 -198 56 -1 c30 0 155 0 277 0 163 0
222 -3 225 -12 2 -7 3 -130 3 -274 l0 -263 202 0 203 0 0 274 0 274 271 0
c148 0 272 2 274 3 6 7 7 46 6 224 l-1 180 -275 0 -275 -1 0 281 0 280 -203 0
-203 0 1 -273z"/>
</g>
</svg>
