<?xml version="1.0" standalone="no"?>
<!DOCTYPE svg PUBLIC "-//W3C//DTD SVG 20010904//EN"
 "http://www.w3.org/TR/2001/REC-SVG-20010904/DTD/svg10.dtd">
<svg version="1.0" xmlns="http://www.w3.org/2000/svg"
 width="850.000000pt" height="850.000000pt" viewBox="0 0 850.000000 850.000000"
 preserveAspectRatio="xMidYMid meet">
<metadata>
Created by potrace 1.14, written by Peter Selinger 2001-2017
</metadata>
<g transform="translate(0.000000,850.000000) scale(0.100000,-0.100000)"
fill="#000000" stroke="none">
<path d="M6290 8456 c-3 -2 -35 -7 -71 -10 -36 -4 -76 -9 -90 -11 -13 -2 -44
-6 -70 -9 -25 -3 -52 -7 -60 -10 -12 -4 -51 -12 -114 -21 -11 -2 -20 -4 -20
-5 0 -1 -9 -3 -20 -5 -11 -2 -36 -7 -55 -10 -19 -4 -36 -7 -37 -7 -2 1 -17 -4
-35 -9 -18 -6 -42 -12 -53 -14 -11 -3 -29 -7 -40 -9 -11 -3 -83 -23 -160 -46
-77 -23 -147 -43 -155 -44 -8 -2 -26 -8 -40 -13 -14 -6 -70 -26 -125 -46 -55
-19 -113 -41 -130 -48 -16 -7 -32 -13 -35 -13 -6 -1 -71 -28 -139 -58 -24 -11
-64 -27 -90 -38 -25 -10 -82 -35 -126 -55 -131 -61 -289 -135 -306 -145 -8 -4
-110 -56 -225 -115 -115 -59 -215 -112 -221 -117 -7 -6 -13 -7 -13 -3 0 3 -15
-2 -32 -13 -39 -24 -431 -204 -450 -206 -3 -1 -10 -4 -14 -8 -4 -5 -16 -8 -26
-8 -10 0 -18 -4 -18 -10 0 -5 -10 -10 -23 -10 -13 0 -28 -5 -35 -12 -6 -6 -18
-13 -26 -14 -7 -1 -29 -9 -47 -17 -34 -15 -70 -29 -79 -32 -3 0 -32 -11 -65
-24 -61 -24 -282 -101 -300 -105 -5 -2 -30 -8 -55 -15 -25 -7 -52 -15 -60 -17
-8 -2 -44 -10 -80 -19 -73 -18 -147 -33 -200 -41 -19 -2 -44 -6 -55 -9 -11 -2
-63 -7 -115 -11 -52 -3 -108 -7 -123 -8 -16 -1 -30 1 -33 5 -2 4 -17 4 -33 -1
-16 -4 -31 -7 -33 -5 -2 2 -41 6 -88 10 -47 3 -96 8 -110 10 -14 2 -45 7 -70
10 -25 3 -52 7 -60 10 -8 2 -28 7 -45 10 -16 3 -55 12 -85 20 -30 9 -59 17
-65 18 -5 2 -16 6 -22 10 -7 5 -13 5 -13 1 0 -3 -6 -2 -12 3 -7 6 -31 16 -53
23 -22 7 -53 20 -70 28 -16 9 -32 17 -35 17 -72 18 -530 309 -530 337 0 4 -6
8 -14 8 -8 0 -16 3 -18 8 -2 4 -32 32 -68 62 -36 30 -67 57 -70 60 -3 3 -22
20 -42 39 l-37 34 -27 -33 c-15 -18 -33 -37 -39 -44 -6 -6 -28 -33 -50 -61
-22 -27 -43 -52 -46 -55 -3 -3 -52 -61 -109 -130 -57 -69 -106 -127 -109 -130
-19 -16 -71 -91 -71 -102 0 -14 83 -85 229 -195 53 -40 107 -81 121 -92 14
-12 30 -21 37 -21 6 0 13 -4 15 -8 2 -7 154 -110 233 -159 117 -72 371 -203
379 -196 3 4 6 1 6 -5 0 -7 6 -12 14 -12 11 0 56 -16 141 -50 11 -5 31 -11 45
-14 14 -4 59 -15 101 -26 42 -12 87 -23 100 -25 41 -9 153 -27 184 -30 17 -2
48 -6 70 -9 22 -3 92 -8 155 -11 63 -4 116 -8 118 -10 3 -2 13 0 23 6 11 5 19
6 19 2 0 -5 24 -8 53 -7 78 3 278 14 307 18 14 2 54 7 90 11 86 10 104 13 110
15 3 1 10 3 15 4 64 11 105 19 130 26 17 5 44 11 60 14 17 2 30 5 30 6 0 1 11
3 25 6 14 2 32 7 40 11 18 7 28 10 57 17 32 7 365 122 413 143 8 3 17 7 20 8
3 1 18 7 33 13 16 7 32 12 36 12 4 0 26 9 49 20 22 11 45 20 50 20 5 0 36 14
70 30 34 16 65 30 68 30 3 0 36 14 72 31 37 18 73 32 80 32 6 0 12 4 12 9 0 4
7 8 15 8 12 0 8 -13 -14 -57 -68 -135 -120 -295 -137 -418 -1 -11 -3 -20 -4
-20 -2 0 -7 -37 -18 -143 -12 -118 -7 -247 13 -347 10 -51 47 -145 57 -145 5
0 7 -4 4 -8 -5 -8 22 -53 63 -106 54 -70 240 -226 270 -226 6 0 11 -4 11 -8 0
-7 185 -102 210 -108 43 -10 161 -68 180 -89 l21 -23 -33 -25 c-18 -14 -96
-56 -173 -94 -77 -39 -156 -79 -175 -91 -19 -12 -42 -25 -50 -29 -17 -8 -17
-8 -95 -71 -78 -64 -175 -175 -175 -200 0 -5 -6 -15 -13 -21 -12 -10 -35 -78
-55 -166 -17 -72 1 -292 28 -330 4 -5 13 -26 21 -45 30 -77 125 -166 243 -230
64 -34 166 -75 179 -72 4 1 7 -3 7 -8 0 -6 6 -10 14 -10 7 0 31 -8 52 -17 22
-9 42 -16 47 -15 4 1 7 -3 7 -10 0 -6 3 -9 6 -6 5 6 27 -2 129 -47 137 -59
159 -76 143 -110 -5 -12 -41 -42 -79 -66 -38 -24 -69 -47 -69 -51 0 -5 -5 -8
-10 -8 -12 0 -194 -133 -225 -165 -11 -11 -36 -32 -55 -46 -95 -72 -324 -303
-379 -383 -8 -12 -18 -23 -21 -26 -8 -7 -120 -159 -120 -164 0 -2 -22 -36 -48
-77 -27 -41 -65 -102 -85 -136 l-36 -62 32 -19 c18 -11 46 -26 62 -34 17 -8
66 -34 110 -58 44 -24 114 -61 155 -82 41 -21 120 -63 175 -93 l100 -54 22 27
c12 15 22 31 23 35 0 4 4 13 10 20 5 7 44 59 86 117 42 58 82 110 90 116 8 6
14 14 14 17 0 17 182 203 275 282 39 32 77 64 85 72 8 7 35 29 60 48 25 19 50
39 55 43 6 5 24 17 40 28 17 10 32 21 35 24 3 3 39 28 80 55 112 74 217 155
290 223 36 34 68 62 73 62 4 0 7 7 7 15 0 8 4 15 10 15 12 0 96 119 93 131 -2
5 1 9 6 9 5 0 11 8 14 18 3 9 13 36 21 60 60 163 32 358 -67 465 -36 38 -114
96 -130 97 -5 0 -23 10 -40 22 -18 13 -33 22 -35 20 -1 -1 -63 27 -138 63 -74
36 -137 65 -139 65 -5 0 -89 37 -180 80 -33 16 -83 38 -111 49 -86 33 -112 53
-104 77 9 23 99 114 112 114 5 0 17 8 28 18 10 9 36 26 57 37 21 11 40 22 43
25 3 3 61 41 130 85 113 72 236 154 314 209 27 19 78 69 115 112 52 60 81 163
74 261 -16 225 -184 388 -548 533 -120 48 -325 149 -353 175 -89 81 -116 141
-116 260 0 119 33 322 63 390 5 11 17 43 26 70 10 28 39 91 65 141 76 145 155
251 285 379 82 81 98 95 195 166 30 22 63 47 73 55 9 7 19 14 22 14 4 0 61 33
132 77 13 7 24 12 25 11 2 -1 23 10 48 25 25 14 79 40 120 57 41 17 84 36 95
41 12 6 27 11 35 12 8 2 20 5 25 8 13 8 76 28 102 33 11 3 50 13 86 25 36 11
85 23 108 26 24 4 46 8 50 10 7 5 131 26 179 31 19 2 53 6 75 8 22 3 65 8 95
12 86 10 528 13 595 4 33 -5 87 -11 120 -14 33 -3 74 -8 90 -11 54 -9 100 -18
115 -22 28 -7 55 -12 85 -17 77 -13 411 -133 563 -202 28 -13 54 -24 57 -24 3
0 64 -30 135 -66 72 -37 133 -65 135 -63 1 2 67 130 145 284 79 154 147 284
151 290 16 17 9 50 -13 64 -13 8 -45 26 -73 41 -27 15 -59 32 -70 38 -24 13
-195 92 -201 92 -2 0 -27 11 -56 24 -29 13 -111 45 -183 71 -71 26 -139 51
-150 56 -51 22 -333 94 -410 104 -19 3 -54 10 -102 19 -12 3 -48 8 -80 11 -32
4 -71 9 -88 12 -39 6 -769 15 -775 9z"/>
<path d="M5969 1925 c0 -11 0 -170 -1 -352 l0 -333 -345 1 c-189 0 -347 -2
-351 -5 -3 -4 -6 -121 -6 -261 l-1 -254 325 0 c179 0 337 0 352 -1 l27 0 -1
-312 c0 -172 1 -325 1 -341 l1 -27 258 2 257 3 0 338 0 337 50 0 c28 1 183 1
346 1 l296 1 0 259 1 259 -157 0 c-86 1 -240 0 -343 0 -147 -1 -188 2 -189 12
0 7 -1 166 -2 353 l-2 340 -35 -3 c-19 -1 -48 -2 -65 -2 -115 5 -137 4 -142
-3 -2 -4 -9 -4 -15 -1 -6 4 -67 8 -135 8 -116 1 -123 0 -124 -19z"/>
</g>
</svg>
